<?xml version="1.0" encoding="utf-8"?>
<!-- Generator: Adobe Illustrator 24.2.0, SVG Export Plug-In . SVG Version: 6.00 Build 0)  -->
<svg version="1.1" id="Слой_1" xmlns="http://www.w3.org/2000/svg" xmlns:xlink="http://www.w3.org/1999/xlink" x="0px" y="0px"
	 viewBox="0 0 16 14" style="enable-background:new 0 0 16 14;" xml:space="preserve">
<style type="text/css">
	.st0{fill:#FFFFFF;}
</style>
<path class="st0" d="M2.1,1.5H0V0h3.2l2,8h6.3l2-4.1H6.6V2.5h9.1l-3.4,7H4.1L2.1,1.5z"/>
<path class="st0" d="M6.5,12.8c0,0.7-0.6,1.2-1.2,1.2S4,13.4,4,12.8s0.6-1.2,1.2-1.2S6.5,12.1,6.5,12.8z"/>
<path class="st0" d="M12.5,12.8c0,0.7-0.6,1.2-1.2,1.2S10,13.4,10,12.8s0.6-1.2,1.2-1.2S12.5,12.1,12.5,12.8z"/>
</svg>
